<svg width="319" height="343" viewBox="0 0 319 343" fill="none" xmlns="http://www.w3.org/2000/svg">
<rect width="319" height="333" rx="20" fill="black"/>
<path d="M169 19.0909L166.159 228.182H133.205L130.364 19.0909H169ZM149.682 312.273C142.674 312.273 136.661 309.763 131.642 304.744C126.623 299.725 124.114 293.712 124.114 286.705C124.114 279.697 126.623 273.684 131.642 268.665C136.661 263.646 142.674 261.136 149.682 261.136C156.689 261.136 162.703 263.646 167.722 268.665C172.741 273.684 175.25 279.697 175.25 286.705C175.25 291.345 174.066 295.606 171.699 299.489C169.426 303.371 166.348 306.496 162.466 308.864C158.678 311.136 154.417 312.273 149.682 312.273Z" fill="white"/>
</svg>
